<svg width="30" height="31" viewBox="0 0 30 31" fill="none" xmlns="http://www.w3.org/2000/svg">
<path fill-rule="evenodd" clip-rule="evenodd" d="M27.856 0C29.0386 0 29.9996 0.962023 29.9996 2.14358V10.4515H25.8383L25.838 7.09614L20.8548 11.7365L18.0195 8.69041L22.8846 4.16031L19.352 4.16129V0H27.856ZM10.6476 0V4.16129L7.11468 4.16031L11.9804 8.69041L9.14507 11.7365L4.16031 7.09614L4.16129 10.4515H0V2.14358C0 0.962023 0.961048 0 2.14357 0H10.6476ZM20.8553 18.2973L25.838 22.9354L25.8387 19.5823H30V27.8903C30 29.0728 29.038 30.0339 27.8564 30.0339H19.3514V25.8726L22.8856 25.8722L18.02 21.3434L20.8553 18.2973ZM9.14537 18.2973L11.9807 21.3434L7.11468 25.8722L10.6481 25.8726V30.0339H2.14309C0.961535 30.0339 0.000487841 29.0728 0.000487841 27.8903V19.5823H4.16177L4.16129 22.9354L9.14537 18.2973Z" fill="#011580"/>
</svg>
